# xmcd
#
# Track frame offsets: 
#        150
#        21136
#        40401
#        60558
#        79614
#        102404
#        130481
#        149649
#        165473
#        190513
#        205731
#        230353
#        248782
#
# Disc length: 3655 seconds
#
# Revision: 0
# Processed by: cddbd v1.5.2PL0 Copyright (c) Steve Scherf et al.
# Submitted via: ExactAudioCopy v1.1
#
DISCID=ad0e450d
DTITLE=Bernard Allison - Chills and Thrills
DYEAR=2007
DGENRE=Modern Electric Blues
TTITLE0=Chills and Thrills
TTITLE1=Boogie Man
TTITLE2=So Devine
TTITLE3=When I'm gone
TTITLE4=Missing Tyrone
TTITLE5=Just my guitar and me
TTITLE6=Compromising for your needs
TTITLE7=Black and white
TTITLE8=Serious
TTITLE9=Heart of St. Paul
TTITLE10=That's why I'm cryin'
TTITLE11=Groove with me
TTITLE12=Serious (After hours)
EXTD=
EXTT0=
EXTT1=
EXTT2=
EXTT3=
EXTT4=
EXTT5=
EXTT6=
EXTT7=
EXTT8=
EXTT9=
EXTT10=
EXTT11=
EXTT12=
PLAYORDER=
